<svg width="457" height="457" viewBox="0 0 457 457" fill="none" xmlns="http://www.w3.org/2000/svg">
<rect width="323" height="322.5" fill="black" fill-opacity="0" transform="translate(0 228.395) rotate(-45)"/>
<path fill-rule="evenodd" clip-rule="evenodd" d="M380.07 303.702C422.051 261.721 422.051 193.656 380.07 151.674C338.089 109.693 270.023 109.693 228.042 151.674C227.924 151.793 227.806 151.911 227.688 152.03C185.679 110.4 117.878 110.518 76.014 152.382C34.0326 194.363 34.0326 262.428 76.014 304.409C78.5725 306.968 81.228 309.371 83.9685 311.617L222.758 450.407C225.883 453.531 230.948 453.531 234.072 450.407L374.786 309.693C375.555 308.924 376.135 308.038 376.525 307.092C377.726 305.994 378.908 304.864 380.07 303.702Z" fill="#CD387B"/>
</svg>
